<?xml version="1.0" encoding="UTF-8" standalone="no"?>
<svg width="300" height="450" viewBox="0 0 300 450" fill="none" xmlns="http://www.w3.org/2000/svg">
  <rect width="300" height="450" fill="#1F2937"/>
  <path d="M150 225.5C156.333 225.5 161.75 223.5 166.25 219.5C170.75 215.5 173 210.667 173 205C173 199.333 170.75 194.5 166.25 190.5C161.75 186.5 156.333 184.5 150 184.5C143.667 184.5 138.25 186.5 133.75 190.5C129.25 194.5 127 199.333 127 205C127 210.667 129.25 215.5 133.75 219.5C138.25 223.5 143.667 225.5 150 225.5ZM111 265.5V261.25C111 257.75 111.917 254.75 113.75 252.25C115.583 249.75 118 248.083 121 247.25C127.333 245.417 133.25 244 138.75 243C144.25 242 150 241.5 156 241.5C162 241.5 167.75 242 173.25 243C178.75 244 184.667 245.417 191 247.25C194 248.083 196.417 249.75 198.25 252.25C200.083 254.75 201 257.75 201 261.25V265.5H111Z" fill="#9CA3AF"/>
  <path d="M131.088 323.12C129.232 323.12 127.728 322.624 126.576 321.632C125.424 320.608 124.848 319.28 124.848 317.648C124.848 316.048 125.408 314.72 126.528 313.664C127.648 312.608 129.168 312.08 131.088 312.08C133.008 312.08 134.528 312.608 135.648 313.664C136.768 314.72 137.328 316.048 137.328 317.648C137.328 319.28 136.752 320.608 135.6 321.632C134.448 322.624 132.944 323.12 131.088 323.12ZM140.736 323V307.136H146.304V323H140.736ZM162.37 307.136V311.072H155.074V323H149.506V311.072H142.21V307.136H162.37ZM166.454 323V307.136H184.374V323H178.806V311.072H172.022V323H166.454Z" fill="#9CA3AF"/>
</svg>
